<svg width="253" height="188" viewBox="0 0 253 188" fill="none" xmlns="http://www.w3.org/2000/svg">
<g filter="url(#filter0_d_6_244)">
<path fill-rule="evenodd" clip-rule="evenodd" d="M241.197 3.90127C241.197 6.05589 242.944 7.80255 245.099 7.80255C247.253 7.80255 249 6.05589 249 3.90127C249 1.74666 247.253 0 245.099 0C242.944 0 241.197 1.74666 241.197 3.90127Z" fill="#A5F251"/>
<path fill-rule="evenodd" clip-rule="evenodd" d="M241.197 72.5637C241.197 74.7183 242.944 76.465 245.099 76.465C247.253 76.465 249 74.7183 249 72.5637C249 70.4091 247.253 68.6624 245.099 68.6624C242.944 68.6624 241.197 70.4091 241.197 72.5637Z" fill="#A5F251"/>
<path fill-rule="evenodd" clip-rule="evenodd" d="M241.197 141.226C241.197 143.381 242.944 145.127 245.099 145.127C247.253 145.127 249 143.381 249 141.226C249 139.071 247.253 137.325 245.099 137.325C242.944 137.325 241.197 139.071 241.197 141.226Z" fill="#A5F251"/>
<path fill-rule="evenodd" clip-rule="evenodd" d="M241.197 38.2325C241.197 40.3871 242.944 42.1338 245.099 42.1338C247.253 42.1338 249 40.3871 249 38.2325C249 36.0779 247.253 34.3312 245.099 34.3312C242.944 34.3312 241.197 36.0779 241.197 38.2325Z" fill="#A5F251"/>
<path fill-rule="evenodd" clip-rule="evenodd" d="M241.197 106.895C241.197 109.05 242.944 110.796 245.099 110.796C247.253 110.796 249 109.05 249 106.895C249 104.74 247.253 102.994 245.099 102.994C242.944 102.994 241.197 104.74 241.197 106.895Z" fill="#A5F251"/>
<path fill-rule="evenodd" clip-rule="evenodd" d="M241.197 175.557C241.197 177.712 242.944 179.459 245.099 179.459C247.253 179.459 249 177.712 249 175.557C249 173.403 247.253 171.656 245.099 171.656C242.944 171.656 241.197 173.403 241.197 175.557Z" fill="#A5F251"/>
<path fill-rule="evenodd" clip-rule="evenodd" d="M152.248 3.90127C152.248 6.05589 153.995 7.80255 156.15 7.80255C158.304 7.80255 160.051 6.05589 160.051 3.90127C160.051 1.74666 158.304 0 156.15 0C153.995 0 152.248 1.74666 152.248 3.90127Z" fill="#A5F251"/>
<path fill-rule="evenodd" clip-rule="evenodd" d="M152.248 72.5637C152.248 74.7183 153.995 76.465 156.15 76.465C158.304 76.465 160.051 74.7183 160.051 72.5637C160.051 70.4091 158.304 68.6624 156.15 68.6624C153.995 68.6624 152.248 70.4091 152.248 72.5637Z" fill="#A5F251"/>
<path fill-rule="evenodd" clip-rule="evenodd" d="M152.248 141.226C152.248 143.381 153.995 145.127 156.15 145.127C158.304 145.127 160.051 143.381 160.051 141.226C160.051 139.071 158.304 137.325 156.15 137.325C153.995 137.325 152.248 139.071 152.248 141.226Z" fill="#A5F251"/>
<path fill-rule="evenodd" clip-rule="evenodd" d="M152.248 38.2325C152.248 40.3871 153.995 42.1338 156.15 42.1338C158.304 42.1338 160.051 40.3871 160.051 38.2325C160.051 36.0779 158.304 34.3312 156.15 34.3312C153.995 34.3312 152.248 36.0779 152.248 38.2325Z" fill="#A5F251"/>
<path fill-rule="evenodd" clip-rule="evenodd" d="M152.248 106.895C152.248 109.05 153.995 110.796 156.15 110.796C158.304 110.796 160.051 109.05 160.051 106.895C160.051 104.74 158.304 102.994 156.15 102.994C153.995 102.994 152.248 104.74 152.248 106.895Z" fill="#A5F251"/>
<path fill-rule="evenodd" clip-rule="evenodd" d="M152.248 175.557C152.248 177.712 153.995 179.459 156.15 179.459C158.304 179.459 160.051 177.712 160.051 175.557C160.051 173.403 158.304 171.656 156.15 171.656C153.995 171.656 152.248 173.403 152.248 175.557Z" fill="#A5F251"/>
<path fill-rule="evenodd" clip-rule="evenodd" d="M63.2994 3.90127C63.2994 6.05589 65.046 7.80255 67.2007 7.80255C69.3553 7.80255 71.1019 6.05589 71.1019 3.90127C71.1019 1.74666 69.3553 0 67.2007 0C65.046 0 63.2994 1.74666 63.2994 3.90127Z" fill="#A5F251"/>
<path fill-rule="evenodd" clip-rule="evenodd" d="M63.2994 72.5637C63.2994 74.7183 65.046 76.465 67.2006 76.465C69.3553 76.465 71.1019 74.7183 71.1019 72.5637C71.1019 70.4091 69.3553 68.6624 67.2006 68.6624C65.046 68.6624 63.2994 70.4091 63.2994 72.5637Z" fill="#A5F251"/>
<path fill-rule="evenodd" clip-rule="evenodd" d="M63.2994 141.226C63.2994 143.381 65.046 145.127 67.2006 145.127C69.3553 145.127 71.1019 143.381 71.1019 141.226C71.1019 139.071 69.3553 137.325 67.2006 137.325C65.046 137.325 63.2994 139.071 63.2994 141.226Z" fill="#A5F251"/>
<path fill-rule="evenodd" clip-rule="evenodd" d="M63.2994 38.2325C63.2994 40.3871 65.046 42.1338 67.2006 42.1338C69.3553 42.1338 71.1019 40.3871 71.1019 38.2325C71.1019 36.0779 69.3553 34.3312 67.2006 34.3312C65.046 34.3312 63.2994 36.0779 63.2994 38.2325Z" fill="#A5F251"/>
<path fill-rule="evenodd" clip-rule="evenodd" d="M63.2994 106.895C63.2994 109.05 65.046 110.796 67.2006 110.796C69.3553 110.796 71.1019 109.05 71.1019 106.895C71.1019 104.74 69.3553 102.994 67.2006 102.994C65.046 102.994 63.2994 104.74 63.2994 106.895Z" fill="#A5F251"/>
<path fill-rule="evenodd" clip-rule="evenodd" d="M63.2994 175.557C63.2994 177.712 65.046 179.459 67.2006 179.459C69.3553 179.459 71.1019 177.712 71.1019 175.557C71.1019 173.403 69.3553 171.656 67.2006 171.656C65.046 171.656 63.2994 173.403 63.2994 175.557Z" fill="#A5F251"/>
<path fill-rule="evenodd" clip-rule="evenodd" d="M211.548 3.90127C211.548 6.05589 213.294 7.80255 215.449 7.80255C217.604 7.80255 219.35 6.05589 219.35 3.90127C219.35 1.74666 217.604 0 215.449 0C213.294 0 211.548 1.74666 211.548 3.90127Z" fill="#A5F251"/>
<path fill-rule="evenodd" clip-rule="evenodd" d="M211.548 72.5637C211.548 74.7183 213.294 76.465 215.449 76.465C217.604 76.465 219.35 74.7183 219.35 72.5637C219.35 70.4091 217.604 68.6624 215.449 68.6624C213.294 68.6624 211.548 70.4091 211.548 72.5637Z" fill="#A5F251"/>
<path fill-rule="evenodd" clip-rule="evenodd" d="M211.548 141.226C211.548 143.381 213.294 145.127 215.449 145.127C217.604 145.127 219.35 143.381 219.35 141.226C219.35 139.071 217.604 137.325 215.449 137.325C213.294 137.325 211.548 139.071 211.548 141.226Z" fill="#A5F251"/>
<path fill-rule="evenodd" clip-rule="evenodd" d="M211.548 38.2325C211.548 40.3871 213.294 42.1338 215.449 42.1338C217.604 42.1338 219.35 40.3871 219.35 38.2325C219.35 36.0779 217.604 34.3312 215.449 34.3312C213.294 34.3312 211.548 36.0779 211.548 38.2325Z" fill="#A5F251"/>
<path fill-rule="evenodd" clip-rule="evenodd" d="M211.548 106.895C211.548 109.05 213.294 110.796 215.449 110.796C217.604 110.796 219.35 109.05 219.35 106.895C219.35 104.74 217.604 102.994 215.449 102.994C213.294 102.994 211.548 104.74 211.548 106.895Z" fill="#A5F251"/>
<path fill-rule="evenodd" clip-rule="evenodd" d="M211.548 175.557C211.548 177.712 213.294 179.459 215.449 179.459C217.604 179.459 219.35 177.712 219.35 175.557C219.35 173.403 217.604 171.656 215.449 171.656C213.294 171.656 211.548 173.403 211.548 175.557Z" fill="#A5F251"/>
<path fill-rule="evenodd" clip-rule="evenodd" d="M122.599 3.90127C122.599 6.05589 124.345 7.80255 126.5 7.80255C128.655 7.80255 130.401 6.05589 130.401 3.90127C130.401 1.74666 128.655 0 126.5 0C124.345 0 122.599 1.74666 122.599 3.90127Z" fill="#A5F251"/>
<path fill-rule="evenodd" clip-rule="evenodd" d="M122.599 72.5637C122.599 74.7183 124.345 76.465 126.5 76.465C128.655 76.465 130.401 74.7183 130.401 72.5637C130.401 70.4091 128.655 68.6624 126.5 68.6624C124.345 68.6624 122.599 70.4091 122.599 72.5637Z" fill="#A5F251"/>
<path fill-rule="evenodd" clip-rule="evenodd" d="M122.599 141.226C122.599 143.381 124.345 145.127 126.5 145.127C128.655 145.127 130.401 143.381 130.401 141.226C130.401 139.071 128.655 137.325 126.5 137.325C124.345 137.325 122.599 139.071 122.599 141.226Z" fill="#A5F251"/>
<path fill-rule="evenodd" clip-rule="evenodd" d="M122.599 38.2325C122.599 40.3871 124.345 42.1338 126.5 42.1338C128.655 42.1338 130.401 40.3871 130.401 38.2325C130.401 36.0779 128.655 34.3312 126.5 34.3312C124.345 34.3312 122.599 36.0779 122.599 38.2325Z" fill="#A5F251"/>
<path fill-rule="evenodd" clip-rule="evenodd" d="M122.599 106.895C122.599 109.05 124.345 110.796 126.5 110.796C128.655 110.796 130.401 109.05 130.401 106.895C130.401 104.74 128.655 102.994 126.5 102.994C124.345 102.994 122.599 104.74 122.599 106.895Z" fill="#A5F251"/>
<path fill-rule="evenodd" clip-rule="evenodd" d="M122.599 175.557C122.599 177.712 124.345 179.459 126.5 179.459C128.655 179.459 130.401 177.712 130.401 175.557C130.401 173.403 128.655 171.656 126.5 171.656C124.345 171.656 122.599 173.403 122.599 175.557Z" fill="#A5F251"/>
<path fill-rule="evenodd" clip-rule="evenodd" d="M33.6497 3.90127C33.6497 6.05589 35.3963 7.80255 37.5509 7.80255C39.7055 7.80255 41.4522 6.05589 41.4522 3.90127C41.4522 1.74666 39.7055 0 37.5509 0C35.3963 0 33.6497 1.74666 33.6497 3.90127Z" fill="#A5F251"/>
<path fill-rule="evenodd" clip-rule="evenodd" d="M33.6497 72.5637C33.6497 74.7183 35.3963 76.465 37.5509 76.465C39.7056 76.465 41.4522 74.7183 41.4522 72.5637C41.4522 70.4091 39.7056 68.6624 37.5509 68.6624C35.3963 68.6624 33.6497 70.4091 33.6497 72.5637Z" fill="#A5F251"/>
<path fill-rule="evenodd" clip-rule="evenodd" d="M33.6497 141.226C33.6497 143.381 35.3963 145.127 37.5509 145.127C39.7056 145.127 41.4522 143.381 41.4522 141.226C41.4522 139.071 39.7056 137.325 37.5509 137.325C35.3963 137.325 33.6497 139.071 33.6497 141.226Z" fill="#A5F251"/>
<path fill-rule="evenodd" clip-rule="evenodd" d="M33.6497 38.2325C33.6497 40.3871 35.3963 42.1338 37.5509 42.1338C39.7056 42.1338 41.4522 40.3871 41.4522 38.2325C41.4522 36.0779 39.7056 34.3312 37.5509 34.3312C35.3963 34.3312 33.6497 36.0779 33.6497 38.2325Z" fill="#A5F251"/>
<path fill-rule="evenodd" clip-rule="evenodd" d="M33.6497 106.895C33.6497 109.05 35.3963 110.796 37.5509 110.796C39.7056 110.796 41.4522 109.05 41.4522 106.895C41.4522 104.74 39.7056 102.994 37.5509 102.994C35.3963 102.994 33.6497 104.74 33.6497 106.895Z" fill="#A5F251"/>
<path fill-rule="evenodd" clip-rule="evenodd" d="M33.6497 175.557C33.6497 177.712 35.3963 179.459 37.5509 179.459C39.7056 179.459 41.4522 177.712 41.4522 175.557C41.4522 173.403 39.7056 171.656 37.5509 171.656C35.3963 171.656 33.6497 173.403 33.6497 175.557Z" fill="#A5F251"/>
<path fill-rule="evenodd" clip-rule="evenodd" d="M181.898 3.90127C181.898 6.05589 183.645 7.80255 185.799 7.80255C187.954 7.80255 189.701 6.05589 189.701 3.90127C189.701 1.74666 187.954 0 185.799 0C183.645 0 181.898 1.74666 181.898 3.90127Z" fill="#A5F251"/>
<path fill-rule="evenodd" clip-rule="evenodd" d="M181.898 72.5637C181.898 74.7183 183.645 76.465 185.799 76.465C187.954 76.465 189.701 74.7183 189.701 72.5637C189.701 70.4091 187.954 68.6624 185.799 68.6624C183.645 68.6624 181.898 70.4091 181.898 72.5637Z" fill="#A5F251"/>
<path fill-rule="evenodd" clip-rule="evenodd" d="M181.898 141.226C181.898 143.381 183.645 145.127 185.799 145.127C187.954 145.127 189.701 143.381 189.701 141.226C189.701 139.071 187.954 137.325 185.799 137.325C183.645 137.325 181.898 139.071 181.898 141.226Z" fill="#A5F251"/>
<path fill-rule="evenodd" clip-rule="evenodd" d="M181.898 38.2325C181.898 40.3871 183.645 42.1338 185.799 42.1338C187.954 42.1338 189.701 40.3871 189.701 38.2325C189.701 36.0779 187.954 34.3312 185.799 34.3312C183.645 34.3312 181.898 36.0779 181.898 38.2325Z" fill="#A5F251"/>
<path fill-rule="evenodd" clip-rule="evenodd" d="M181.898 106.895C181.898 109.05 183.645 110.796 185.799 110.796C187.954 110.796 189.701 109.05 189.701 106.895C189.701 104.74 187.954 102.994 185.799 102.994C183.645 102.994 181.898 104.74 181.898 106.895Z" fill="#A5F251"/>
<path fill-rule="evenodd" clip-rule="evenodd" d="M181.898 175.557C181.898 177.712 183.645 179.459 185.799 179.459C187.954 179.459 189.701 177.712 189.701 175.557C189.701 173.403 187.954 171.656 185.799 171.656C183.645 171.656 181.898 173.403 181.898 175.557Z" fill="#A5F251"/>
<path fill-rule="evenodd" clip-rule="evenodd" d="M92.949 3.90127C92.949 6.05589 94.6957 7.80255 96.8503 7.80255C99.0049 7.80255 100.752 6.05589 100.752 3.90127C100.752 1.74666 99.0049 0 96.8503 0C94.6957 0 92.949 1.74666 92.949 3.90127Z" fill="#A5F251"/>
<path fill-rule="evenodd" clip-rule="evenodd" d="M92.949 72.5637C92.949 74.7183 94.6957 76.465 96.8503 76.465C99.0049 76.465 100.752 74.7183 100.752 72.5637C100.752 70.4091 99.0049 68.6624 96.8503 68.6624C94.6957 68.6624 92.949 70.4091 92.949 72.5637Z" fill="#A5F251"/>
<path fill-rule="evenodd" clip-rule="evenodd" d="M92.949 141.226C92.949 143.381 94.6957 145.127 96.8503 145.127C99.0049 145.127 100.752 143.381 100.752 141.226C100.752 139.071 99.0049 137.325 96.8503 137.325C94.6957 137.325 92.949 139.071 92.949 141.226Z" fill="#A5F251"/>
<path fill-rule="evenodd" clip-rule="evenodd" d="M92.949 38.2325C92.949 40.3871 94.6957 42.1338 96.8503 42.1338C99.0049 42.1338 100.752 40.3871 100.752 38.2325C100.752 36.0779 99.0049 34.3312 96.8503 34.3312C94.6957 34.3312 92.949 36.0779 92.949 38.2325Z" fill="#A5F251"/>
<path fill-rule="evenodd" clip-rule="evenodd" d="M92.949 106.895C92.949 109.05 94.6957 110.796 96.8503 110.796C99.0049 110.796 100.752 109.05 100.752 106.895C100.752 104.74 99.0049 102.994 96.8503 102.994C94.6957 102.994 92.949 104.74 92.949 106.895Z" fill="#A5F251"/>
<path fill-rule="evenodd" clip-rule="evenodd" d="M92.949 175.557C92.949 177.712 94.6957 179.459 96.8503 179.459C99.0049 179.459 100.752 177.712 100.752 175.557C100.752 173.403 99.0049 171.656 96.8503 171.656C94.6957 171.656 92.949 173.403 92.949 175.557Z" fill="#A5F251"/>
<path fill-rule="evenodd" clip-rule="evenodd" d="M4 3.90127C4 6.05589 5.74666 7.80255 7.90127 7.80255C10.0559 7.80255 11.8025 6.05589 11.8025 3.90127C11.8025 1.74666 10.0559 0 7.90127 0C5.74666 0 4 1.74666 4 3.90127Z" fill="#A5F251"/>
<path fill-rule="evenodd" clip-rule="evenodd" d="M4 72.5637C4 74.7183 5.74666 76.465 7.90127 76.465C10.0559 76.465 11.8025 74.7183 11.8025 72.5637C11.8025 70.4091 10.0559 68.6624 7.90127 68.6624C5.74666 68.6624 4 70.4091 4 72.5637Z" fill="#A5F251"/>
<path fill-rule="evenodd" clip-rule="evenodd" d="M4 141.226C4 143.381 5.74666 145.127 7.90127 145.127C10.0559 145.127 11.8025 143.381 11.8025 141.226C11.8025 139.071 10.0559 137.325 7.90127 137.325C5.74666 137.325 4 139.071 4 141.226Z" fill="#A5F251"/>
<path fill-rule="evenodd" clip-rule="evenodd" d="M4 38.2325C4 40.3871 5.74666 42.1338 7.90127 42.1338C10.0559 42.1338 11.8025 40.3871 11.8025 38.2325C11.8025 36.0779 10.0559 34.3312 7.90127 34.3312C5.74666 34.3312 4 36.0779 4 38.2325Z" fill="#A5F251"/>
<path fill-rule="evenodd" clip-rule="evenodd" d="M4 106.895C4 109.05 5.74666 110.796 7.90127 110.796C10.0559 110.796 11.8025 109.05 11.8025 106.895C11.8025 104.74 10.0559 102.994 7.90127 102.994C5.74666 102.994 4 104.74 4 106.895Z" fill="#A5F251"/>
<path fill-rule="evenodd" clip-rule="evenodd" d="M4 175.557C4 177.712 5.74666 179.459 7.90127 179.459C10.0559 179.459 11.8025 177.712 11.8025 175.557C11.8025 173.403 10.0559 171.656 7.90127 171.656C5.74666 171.656 4 173.403 4 175.557Z" fill="#A5F251"/>
</g>
<defs>
<filter id="filter0_d_6_244" x="0" y="0" width="253" height="187.458" filterUnits="userSpaceOnUse" color-interpolation-filters="sRGB">
<feFlood flood-opacity="0" result="BackgroundImageFix"/>
<feColorMatrix in="SourceAlpha" type="matrix" values="0 0 0 0 0 0 0 0 0 0 0 0 0 0 0 0 0 0 127 0" result="hardAlpha"/>
<feOffset dy="4"/>
<feGaussianBlur stdDeviation="2"/>
<feComposite in2="hardAlpha" operator="out"/>
<feColorMatrix type="matrix" values="0 0 0 0 0 0 0 0 0 0 0 0 0 0 0 0 0 0 0.25 0"/>
<feBlend mode="normal" in2="BackgroundImageFix" result="effect1_dropShadow_6_244"/>
<feBlend mode="normal" in="SourceGraphic" in2="effect1_dropShadow_6_244" result="shape"/>
</filter>
</defs>
</svg>
